<svg width="87" height="60" viewBox="0 0 87 60" fill="none" xmlns="http://www.w3.org/2000/svg">
<path d="M23.6756 35.05C17.3089 35.05 12.3756 34.7 8.87559 34C7.97559 17.3 7.15892 7.2 6.42559 3.7L4.92559 4.05C4.12559 4.21667 3.35892 4.4 2.62559 4.6C1.89225 4.76666 1.10892 5.01666 0.275586 5.35L0.225586 3.65C0.225586 3.08333 0.842253 2.56666 2.07559 2.1C3.30892 1.6 4.79225 1.21666 6.52559 0.949997C8.29225 0.649997 9.85892 0.499997 11.2256 0.499997C12.7256 0.499997 14.4423 0.766664 16.3756 1.3C18.3423 1.83333 20.0256 2.63333 21.4256 3.7C22.8256 4.73333 23.5256 5.96666 23.5256 7.4C23.5256 9.03333 22.8923 10.4833 21.6256 11.75C20.3923 12.9833 18.7756 13.8667 16.7756 14.4C19.7089 14.9 22.4423 15.8 24.9756 17.1C27.5089 18.3667 29.5423 19.95 31.0756 21.85C32.6089 23.7167 33.3756 25.7333 33.3756 27.9C33.3756 30.4 32.4089 32.2167 30.4756 33.35C28.5423 34.4833 26.2756 35.05 23.6756 35.05ZM22.3756 32.2C24.8423 32.2 26.7423 31.9333 28.0756 31.4C29.4089 30.8333 30.0756 29.6333 30.0756 27.8C30.0756 25.8667 29.4923 24.25 28.3256 22.95C27.1923 21.6167 25.8423 20.5833 24.2756 19.85C22.7423 19.0833 20.8256 18.2833 18.5256 17.45C16.6923 16.8167 15.3256 16.2667 14.4256 15.8C13.5589 15.3 13.1256 14.75 13.1256 14.15C13.1256 13.7167 13.3423 13.3833 13.7756 13.15C14.2089 12.9167 14.9756 12.5833 16.0756 12.15C17.5756 11.65 18.7423 11.1167 19.5756 10.55C20.4423 9.95 20.8756 9.11667 20.8756 8.05C20.8756 6.48333 19.9256 5.28333 18.0256 4.45C16.1256 3.58333 13.9923 3.15 11.6256 3.15C10.9589 3.15 10.1589 3.21667 9.22559 3.35C10.0923 8.95 10.6923 13.6667 11.0256 17.5C11.3589 21.3 11.5923 25.7167 11.7256 30.75C12.1923 31.2167 13.3756 31.5667 15.2756 31.8C17.1756 32.0333 19.5423 32.1667 22.3756 32.2ZM36.6396 34.65C35.9063 31.0167 35.3396 26.7167 34.9396 21.75C34.573 16.75 34.3896 11.9167 34.3896 7.25C34.3896 4.91667 34.4396 2.85 34.5396 1.05C34.5396 0.616665 34.873 0.399998 35.5396 0.399998C36.073 0.399998 36.4063 0.533332 36.5396 0.799999C36.7063 1.06666 36.7896 1.48333 36.7896 2.05C36.7896 7.45 36.8896 12.0667 37.0896 15.9C37.2896 19.7 37.5563 23.8 37.8896 28.2C38.0896 31.0333 38.223 32.95 38.2896 33.95C38.323 34.4833 38.0396 34.75 37.4396 34.75C37.2396 34.75 36.973 34.7167 36.6396 34.65ZM52.6381 35.05C50.6714 35.05 48.8881 34.6167 47.2881 33.75C45.7214 32.85 44.4881 31.6167 43.5881 30.05C42.7214 28.45 42.2881 26.6333 42.2881 24.6C42.2881 21.2667 43.5048 18.7833 45.9381 17.15C48.4048 15.5167 51.4214 14.7 54.9881 14.7C56.6214 14.7 58.1381 15.1 59.5381 15.9C60.9714 16.7 62.1214 17.85 62.9881 19.35C63.8548 20.85 64.2881 22.5833 64.2881 24.55C64.2881 26.6833 63.7381 28.55 62.6381 30.15C61.5381 31.7167 60.0881 32.9333 58.2881 33.8C56.5214 34.6333 54.6381 35.05 52.6381 35.05ZM52.0881 32.2C55.1881 32.2 57.5381 31.5 59.1381 30.1C60.7381 28.7 61.5381 26.65 61.5381 23.95C61.5381 22.1167 60.9048 20.5333 59.6381 19.2C58.4048 17.8667 56.6714 17.2 54.4381 17.2C52.9381 17.2 51.4214 17.4833 49.8881 18.05C48.3548 18.6167 47.0881 19.4667 46.0881 20.6C45.0881 21.7333 44.5881 23.1 44.5881 24.7C44.5881 26.0333 44.9214 27.2833 45.5881 28.45C46.2548 29.5833 47.1548 30.5 48.2881 31.2C49.4548 31.8667 50.7214 32.2 52.0881 32.2ZM76.6646 59.4C73.8646 59.4 71.5146 58.6 69.6146 57C67.748 55.4333 66.6313 52.7833 66.2646 49.05C66.2313 48.4833 66.3146 48.05 66.5146 47.75C66.748 47.45 67.048 47.3 67.4146 47.3C67.8146 47.3 68.1646 47.45 68.4646 47.75C68.7646 48.0833 68.898 48.5167 68.8646 49.05C68.8646 51.25 69.6146 52.9833 71.1146 54.25C72.648 55.55 74.598 56.2 76.9646 56.2C78.3313 56.2 79.5313 55.7 80.5646 54.7C81.6313 53.7 82.448 52.3 83.0146 50.5C83.5813 48.7333 83.8646 46.7 83.8646 44.4C83.8646 40.3667 83.9146 36.45 84.0146 32.65L84.0646 30.1C82.7646 31.4667 81.5813 32.4667 80.5146 33.1C79.4813 33.7333 78.2313 34.05 76.7646 34.05C74.198 34.05 72.298 33.3667 71.0646 32C69.8646 30.6 69.2646 28.4667 69.2646 25.6C69.2646 23.9667 69.698 22.2667 70.5646 20.5C71.4646 18.7 72.6813 17.2 74.2146 16C75.7813 14.8 77.548 14.2 79.5146 14.2C80.1813 14.2 80.798 14.2667 81.3646 14.4C83.498 14.8667 84.9313 16.85 85.6646 20.35C86.398 23.85 86.7646 28.3833 86.7646 33.95C86.7646 35.4833 86.7313 37.5167 86.6646 40.05L86.6146 44.8C86.6146 46.7 86.3146 48.7667 85.7146 51C85.1146 53.2667 84.0646 55.2333 82.5646 56.9C81.0646 58.5667 79.098 59.4 76.6646 59.4ZM76.0146 30.75C78.4813 30.75 80.348 30.1667 81.6146 29C82.8813 27.8 83.5146 26.05 83.5146 23.75C83.5146 23.45 83.4813 22.9333 83.4146 22.2C83.248 20.6667 82.848 19.4667 82.2146 18.6C81.6146 17.7 80.6646 17.25 79.3646 17.25C77.998 17.25 76.748 17.7333 75.6146 18.7C74.4813 19.6667 73.598 20.8667 72.9646 22.3C72.3313 23.7 72.0146 25.0167 72.0146 26.25C72.0146 27.4833 72.3813 28.55 73.1146 29.45C73.848 30.3167 74.8146 30.75 76.0146 30.75Z" fill="black"/>
</svg>
