<svg width="227" height="34" viewBox="0 0 227 34" fill="none" xmlns="http://www.w3.org/2000/svg">
<path d="M11.69 33.55C9.39004 33.55 7.42337 32.9167 5.79004 31.65C4.15671 30.3833 2.90671 28.65 2.04004 26.45C1.20671 24.25 0.790039 21.75 0.790039 18.95C0.790039 15.8167 1.52337 12.85 2.99004 10.05C4.45671 7.21667 6.37337 4.95 8.74004 3.25C11.14 1.51667 13.6234 0.649999 16.19 0.649999C18.3567 0.649999 20.0234 1.13333 21.19 2.1C22.3567 3.06666 22.94 4.2 22.94 5.5C22.94 6.26667 22.7067 6.96667 22.24 7.6C21.8067 8.23333 21.1734 8.71667 20.34 9.05C20.24 8.85 20.19 8.53333 20.19 8.1C20.19 7.7 20.24 7.3 20.34 6.9C20.4067 6.36666 20.44 5.98333 20.44 5.75C20.44 5.41667 20.39 5.13333 20.29 4.9C19.8234 3.73333 18.5567 3.15 16.49 3.15C15.9234 3.15 15.2567 3.2 14.49 3.3C12.7234 3.53333 10.9734 4.41667 9.24004 5.95C7.50671 7.45 6.09004 9.33333 4.99004 11.6C3.89004 13.8667 3.34004 16.1833 3.34004 18.55C3.34004 20.6167 3.67337 22.5833 4.34004 24.45C5.04004 26.2833 6.04004 27.7667 7.34004 28.9C8.64004 30.0333 10.19 30.6 11.99 30.6C14.3234 30.6 16.2567 30.3167 17.79 29.75C19.3567 29.1833 20.89 28.3167 22.39 27.15C22.5567 27.0167 22.74 26.95 22.94 26.95C23.3067 26.95 23.5567 27.1667 23.69 27.6C23.8567 28.4 23.3234 29.2667 22.09 30.2C20.8567 31.1333 19.2567 31.9333 17.29 32.6C15.3234 33.2333 13.4567 33.55 11.69 33.55ZM38.0814 33.05C36.1148 33.05 34.3314 32.6167 32.7314 31.75C31.1648 30.85 29.9314 29.6167 29.0314 28.05C28.1648 26.45 27.7314 24.6333 27.7314 22.6C27.7314 19.2667 28.9481 16.7833 31.3814 15.15C33.8481 13.5167 36.8648 12.7 40.4314 12.7C42.0648 12.7 43.5814 13.1 44.9814 13.9C46.4148 14.7 47.5648 15.85 48.4314 17.35C49.2981 18.85 49.7314 20.5833 49.7314 22.55C49.7314 24.6833 49.1814 26.55 48.0814 28.15C46.9814 29.7167 45.5314 30.9333 43.7314 31.8C41.9648 32.6333 40.0814 33.05 38.0814 33.05ZM37.5314 30.2C40.6314 30.2 42.9814 29.5 44.5814 28.1C46.1814 26.7 46.9814 24.65 46.9814 21.95C46.9814 20.1167 46.3481 18.5333 45.0814 17.2C43.8481 15.8667 42.1148 15.2 39.8814 15.2C38.3814 15.2 36.8648 15.4833 35.3314 16.05C33.7981 16.6167 32.5314 17.4667 31.5314 18.6C30.5314 19.7333 30.0314 21.1 30.0314 22.7C30.0314 24.0333 30.3648 25.2833 31.0314 26.45C31.6981 27.5833 32.5981 28.5 33.7314 29.2C34.8981 29.8667 36.1648 30.2 37.5314 30.2ZM58.458 33.2C57.9913 33.3333 57.7247 33.4 57.658 33.4C57.3913 33.4 57.108 33.2667 56.808 33C55.708 31.3667 54.908 28.5167 54.408 24.45C53.9413 20.3833 53.708 16.8833 53.708 13.95C53.708 13.4833 54.0413 13.25 54.708 13.25C55.708 13.25 56.208 13.8 56.208 14.9C56.208 15.2 56.1913 15.45 56.158 15.65C56.458 14.95 57.0247 14.2333 57.858 13.5C58.6913 12.7667 59.658 12.15 60.758 11.65C61.858 11.15 62.9747 10.9 64.108 10.9C67.6747 10.9 70.2747 12.4833 71.908 15.65C73.5413 18.7833 74.358 22.6833 74.358 27.35C74.358 28.95 74.1913 30.2333 73.858 31.2C73.5247 32.1333 73.0747 32.6 72.508 32.6C71.908 32.6 71.608 32.4167 71.608 32.05C71.8413 30.2833 71.958 28.55 71.958 26.85C71.958 22.55 71.208 19.3 69.708 17.1C68.208 14.8667 66.2247 13.75 63.758 13.75C62.558 13.75 61.3913 14.05 60.258 14.65C59.158 15.25 58.258 16.0833 57.558 17.15C56.8913 18.2167 56.558 19.4333 56.558 20.8C56.558 22.3333 56.6413 23.6667 56.808 24.8C56.9747 25.9333 57.2413 27.3 57.608 28.9C58.008 30.4667 58.2913 31.9 58.458 33.2ZM86.4162 33C86.0829 33.0667 85.8662 33.1 85.7662 33.1C84.7329 33.1 84.0162 32.3333 83.6162 30.8C83.2495 29.2667 83.0662 27.1167 83.0662 24.35C83.0662 23.2167 83.0995 21.45 83.1662 19.05C83.2329 17.5833 83.2662 16.4833 83.2662 15.75C79.1662 15.75 77.1162 15.2833 77.1162 14.35C77.1162 14.05 77.1495 13.8167 77.2162 13.65C77.3162 13.4833 77.5162 13.4 77.8162 13.4L83.2662 13.05C83.2329 11.4167 83.1495 9.63333 83.0162 7.7C82.8829 5.96667 82.7995 4.36666 82.7662 2.9C82.7662 2.53333 82.9162 2.28333 83.2162 2.15C83.5162 1.98333 83.8329 1.9 84.1662 1.9C84.5662 1.9 84.8995 2.11666 85.1662 2.55C85.4329 2.95 85.5662 3.36667 85.5662 3.8L85.9162 12.95L90.0662 13.15C90.6995 13.0833 91.2329 13.2 91.6662 13.5C92.1329 13.8 92.3829 14.3 92.4162 15C91.7162 15.3 90.9495 15.4833 90.1162 15.55C89.2829 15.6167 87.8829 15.65 85.9162 15.65C85.9162 18.75 86.0662 23.85 86.3662 30.95C86.3662 31.6833 86.3662 32.2 86.3662 32.5C86.3995 32.7667 86.4162 32.9333 86.4162 33ZM108.013 33C104.546 33 101.53 32.4 98.9631 31.2C96.4298 29.9667 95.1631 27.8167 95.1631 24.75C95.1631 23.65 95.4964 22.5833 96.1631 21.55C96.8298 20.5167 97.8131 19.6833 99.1131 19.05C100.413 18.3833 101.996 18.05 103.863 18.05C105.296 18.05 106.513 18.1167 107.513 18.25C108.513 18.3833 109.663 18.75 110.963 19.35C112.263 19.95 113.613 20.9 115.013 22.2C114.48 19.9 113.68 17.8833 112.613 16.15C111.546 14.4167 110.346 13.0833 109.013 12.15C107.713 11.1833 106.43 10.7 105.163 10.7C104.563 10.7 103.996 10.8167 103.463 11.05C102.963 11.25 102.346 11.55 101.613 11.95C100.78 12.4833 100.163 12.75 99.7631 12.75C99.5964 12.75 99.4464 12.7 99.3131 12.6C99.2131 12.4667 99.1631 12.3167 99.1631 12.15C99.1631 10.8167 99.7464 9.78333 100.913 9.05C102.113 8.31666 103.563 7.98333 105.263 8.05C107.596 8.18333 109.73 9.18333 111.663 11.05C113.596 12.8833 115.113 15.1667 116.213 17.9C117.346 20.6333 117.913 23.3167 117.913 25.95C117.913 26.3833 117.88 27 117.813 27.8L116.213 27.7C114.946 25.1333 113.313 23.3167 111.313 22.25C109.346 21.15 107.363 20.6 105.363 20.6C102.796 20.6 100.963 20.9833 99.8631 21.75C98.7631 22.5167 98.2131 23.6333 98.2131 25.1C98.2131 26.6333 98.9798 27.8667 100.513 28.8C102.046 29.7333 104.013 30.2 106.413 30.2C107.746 30.2 108.813 30.1333 109.613 30C110.413 29.8333 111.246 29.6167 112.113 29.35C112.813 29.1167 113.43 28.95 113.963 28.85C114.496 28.75 115.18 28.7 116.013 28.7C116.946 28.7 117.53 28.7667 117.763 28.9C118.03 29.0333 118.163 29.3333 118.163 29.8C118.163 30.1333 117.48 30.55 116.113 31.05C114.746 31.55 113.213 32 111.513 32.4C109.813 32.8 108.646 33 108.013 33ZM134.465 33.05C130.565 33.05 127.532 32.1667 125.365 30.4C123.232 28.6 122.165 25.8333 122.165 22.1C122.165 20.2 122.632 18.4 123.565 16.7C124.532 14.9667 125.815 13.5833 127.415 12.55C129.048 11.4833 130.798 10.95 132.665 10.95C134.565 10.95 136.182 11.3667 137.515 12.2C138.848 13 139.515 14.1667 139.515 15.7C139.515 16.7667 139.315 17.5333 138.915 18C138.548 18.4333 138.132 18.65 137.665 18.65C137.665 17.05 137.232 15.75 136.365 14.75C135.498 13.75 134.265 13.25 132.665 13.25C131.065 13.25 129.682 13.6833 128.515 14.55C127.348 15.3833 126.448 16.5 125.815 17.9C125.215 19.2667 124.915 20.7 124.915 22.2C124.915 25.3667 125.982 27.5167 128.115 28.65C130.282 29.7833 133.132 30.35 136.665 30.35C137.865 30.35 139.432 30.2833 141.365 30.15C141.432 30.15 141.582 30.2167 141.815 30.35C142.048 30.4833 142.232 30.5667 142.365 30.6V30.9C142.365 31.8667 141.515 32.4667 139.815 32.7C138.115 32.9333 136.332 33.05 134.465 33.05ZM152.432 33C152.099 33.0667 151.882 33.1 151.782 33.1C150.749 33.1 150.032 32.3333 149.632 30.8C149.265 29.2667 149.082 27.1167 149.082 24.35C149.082 23.2167 149.115 21.45 149.182 19.05C149.249 17.5833 149.282 16.4833 149.282 15.75C145.182 15.75 143.132 15.2833 143.132 14.35C143.132 14.05 143.165 13.8167 143.232 13.65C143.332 13.4833 143.532 13.4 143.832 13.4L149.282 13.05C149.249 11.4167 149.165 9.63333 149.032 7.7C148.899 5.96667 148.815 4.36666 148.782 2.9C148.782 2.53333 148.932 2.28333 149.232 2.15C149.532 1.98333 149.849 1.9 150.182 1.9C150.582 1.9 150.915 2.11666 151.182 2.55C151.449 2.95 151.582 3.36667 151.582 3.8L151.932 12.95L156.082 13.15C156.715 13.0833 157.249 13.2 157.682 13.5C158.149 13.8 158.399 14.3 158.432 15C157.732 15.3 156.965 15.4833 156.132 15.55C155.299 15.6167 153.899 15.65 151.932 15.65C151.932 18.75 152.082 23.85 152.382 30.95C152.382 31.6833 152.382 32.2 152.382 32.5C152.415 32.7667 152.432 32.9333 152.432 33ZM185.979 33.05C182.045 33.05 179.245 31.2833 177.579 27.75C175.945 24.2167 174.995 19.6167 174.729 13.95C174.695 13.45 174.679 12.7333 174.679 11.8C174.679 9.9 174.912 8.43333 175.379 7.4C175.879 6.33333 176.795 5.8 178.129 5.8C178.495 5.8 178.779 5.9 178.979 6.1C179.179 6.26666 179.279 6.5 179.279 6.8C179.279 7.43333 178.895 8.05 178.129 8.65C177.695 8.65 177.395 8.93333 177.229 9.5C177.095 10.0667 177.029 10.9333 177.029 12.1C177.029 13.1667 177.045 14.0167 177.079 14.65C177.279 19.6167 178.195 23.55 179.829 26.45C181.462 29.3167 183.729 30.75 186.629 30.75C188.295 30.75 189.795 30.35 191.129 29.55C192.462 28.75 193.495 27.6833 194.229 26.35C194.995 24.9833 195.379 23.5167 195.379 21.95C195.045 19.2167 194.779 17.3 194.579 16.2C194.379 15.1 194.012 13.3167 193.479 10.85C193.245 9.88333 193.129 9.03333 193.129 8.3C193.129 7.53333 193.279 7 193.579 6.7C193.879 6.4 194.329 6.25 194.929 6.25C195.295 6.25 195.579 6.46667 195.779 6.9C195.979 7.33333 196.162 8.18333 196.329 9.45C196.495 10.7167 196.712 12.7833 196.979 15.65C197.145 17.2833 197.462 18.8833 197.929 20.45C198.429 22.0167 199.079 23.8167 199.879 25.85C199.945 26.05 200.129 26.55 200.429 27.35C200.729 28.1167 200.945 28.75 201.079 29.25C201.212 29.75 201.279 30.15 201.279 30.45C201.279 31.2167 200.879 31.6 200.079 31.6C199.812 31.6 198.829 29.55 197.129 25.45C196.762 26.95 196.012 28.2833 194.879 29.45C193.745 30.5833 192.395 31.4667 190.829 32.1C189.262 32.7333 187.645 33.05 185.979 33.05ZM205.521 27.1C205.987 26.7333 206.437 26.55 206.871 26.55C207.271 26.55 207.654 26.6667 208.021 26.9C208.421 27.1333 208.821 27.4333 209.221 27.8C209.621 28.1333 209.937 28.3833 210.171 28.55C210.937 29.15 211.987 29.6167 213.321 29.95C214.654 30.2833 216.071 30.45 217.571 30.45C219.271 30.45 220.787 30.1333 222.121 29.5C223.487 28.8333 224.171 27.95 224.171 26.85C224.171 25.85 223.804 25.0667 223.071 24.5C222.337 23.9 221.454 23.4667 220.421 23.2C219.387 22.9333 218.021 22.6833 216.321 22.45C214.021 22.1833 212.187 21.85 210.821 21.45C209.487 21.05 208.421 20.4 207.621 19.5C206.821 18.5667 206.421 17.2667 206.421 15.6C206.421 13.8 207.271 12.4667 208.971 11.6C210.671 10.7 212.621 10.25 214.821 10.25C216.821 10.25 218.521 10.6833 219.921 11.55C221.354 12.3833 222.087 13.5833 222.121 15.15C222.187 16.05 222.054 16.7667 221.721 17.3C221.387 17.8 220.987 18.05 220.521 18.05C220.254 18.05 220.021 17.95 219.821 17.75C219.654 17.55 219.571 17.2833 219.571 16.95C219.571 16.4167 219.754 15.8333 220.121 15.2C219.954 14.4 219.404 13.8 218.471 13.4C217.571 13 216.487 12.8 215.221 12.8C213.354 12.8 211.871 13.15 210.771 13.85C209.671 14.5167 209.121 15.3167 209.121 16.25C209.121 17.25 209.521 18.0167 210.321 18.55C211.121 19.0833 212.087 19.4667 213.221 19.7C214.387 19.9 216.037 20.1 218.171 20.3C219.937 20.5333 221.371 20.8167 222.471 21.15C223.604 21.4833 224.554 22.1333 225.321 23.1C226.087 24.0333 226.471 25.3833 226.471 27.15C226.471 28.9833 225.621 30.4333 223.921 31.5C222.221 32.5333 220.187 33.05 217.821 33.05C214.787 33.05 212.071 32.5333 209.671 31.5C207.304 30.4667 205.921 29 205.521 27.1Z" fill="black"/>
</svg>
