<svg width="146" height="58" viewBox="0 0 146 58" fill="none" xmlns="http://www.w3.org/2000/svg">
<path d="M23.4441 34C22.6108 34.1667 22.0275 33.7667 21.6941 32.8C21.3608 31.8 21.1775 30.3333 21.1441 28.4C21.0775 25.5667 20.9775 23.2 20.8441 21.3C20.7441 19.3667 20.5441 17.6333 20.2441 16.1C17.1441 17.5667 14.0775 18.9167 11.0441 20.15C8.04414 21.35 6.54414 21.9333 6.54414 21.9L6.64414 32.55C6.64414 33.05 6.34414 33.3667 5.74414 33.5C4.94414 33.6667 4.41081 33.2167 4.14414 32.15C3.91081 31.05 3.74414 29.3333 3.64414 27C3.57747 24.9 3.47747 23.4167 3.34414 22.55C2.41081 23.0167 1.61081 23.2333 0.944141 23.2C0.810807 22.9333 0.744141 22.3833 0.744141 21.55C1.01081 21.45 1.32747 21.3333 1.69414 21.2C2.09414 21.0667 2.37747 20.9167 2.54414 20.75C2.74414 20.55 2.84414 20.2667 2.84414 19.9C2.84414 18.2333 2.67747 15.6667 2.34414 12.2C1.97747 9.06667 1.79414 6.48333 1.79414 4.45L1.84414 2.15C1.94414 1.91666 2.06081 1.76666 2.19414 1.7C2.36081 1.63333 2.57747 1.6 2.84414 1.6C3.41081 1.6 3.69414 1.78333 3.69414 2.15L5.74414 19.75C6.67747 19.5167 8.22747 18.9167 10.3941 17.95C12.5608 16.9833 15.8941 15.4167 20.3941 13.25L20.5941 2.15C20.5941 0.849998 21.0775 0.199997 22.0441 0.199997C22.4441 0.199997 22.7108 0.349997 22.8441 0.649997C23.0108 0.949997 23.0608 1.45 22.9941 2.15L22.9441 10.8C22.9441 13.7333 23.1108 17.55 23.4441 22.25C23.5441 23.1833 23.6275 24.0833 23.6941 24.95C23.7941 25.7833 23.8775 26.5833 23.9441 27.35C24.1441 29.4167 24.2775 30.7333 24.3441 31.3C24.4441 31.8333 24.5941 32.3167 24.7941 32.75C24.6275 33.4167 24.1775 33.8333 23.4441 34ZM32.6469 34.05C31.8802 34.05 31.2635 32.9333 30.7969 30.7C30.3302 28.4333 30.0302 26.4833 29.8969 24.85C29.7635 23.2167 29.5802 20.6333 29.3469 17.1C29.3135 16.5333 29.2969 15.8 29.2969 14.9C29.2969 13.7667 29.3802 12.9833 29.5469 12.55C29.7469 12.1167 30.0635 11.9 30.4969 11.9C30.8635 11.9 31.1469 11.9833 31.3469 12.15C31.5802 12.2833 31.7802 12.5167 31.9469 12.85L31.8969 14.85C31.8969 16.9833 31.9969 19 32.1969 20.9C32.4302 22.8 32.7802 25.35 33.2469 28.55C33.5135 29.95 33.6969 31.1 33.7969 32C33.8635 32.4667 33.7802 32.9333 33.5469 33.4C33.3135 33.8333 33.0135 34.05 32.6469 34.05ZM31.3969 6.55C30.6635 6.55 30.1135 6.26667 29.7469 5.7C29.4135 5.13333 29.2469 4.43333 29.2469 3.6C29.2469 3.23333 29.2635 2.96667 29.2969 2.8C29.2635 2.26666 29.5635 2 30.1969 2C30.6635 2 31.1302 2.11666 31.5969 2.35C32.0969 2.55 32.2469 2.7 32.0469 2.8C32.3802 3.66666 32.5469 4.35 32.5469 4.85C32.5469 5.28333 32.4469 5.63333 32.2469 5.9C32.0469 6.13333 31.7635 6.35 31.3969 6.55ZM38.5313 28.1C38.9979 27.7333 39.4479 27.55 39.8813 27.55C40.2813 27.55 40.6646 27.6667 41.0313 27.9C41.4313 28.1333 41.8313 28.4333 42.2313 28.8C42.6313 29.1333 42.9479 29.3833 43.1813 29.55C43.9479 30.15 44.9979 30.6167 46.3313 30.95C47.6646 31.2833 49.0813 31.45 50.5813 31.45C52.2813 31.45 53.7979 31.1333 55.1313 30.5C56.4979 29.8333 57.1813 28.95 57.1813 27.85C57.1813 26.85 56.8146 26.0667 56.0813 25.5C55.3479 24.9 54.4646 24.4667 53.4313 24.2C52.3979 23.9333 51.0313 23.6833 49.3313 23.45C47.0313 23.1833 45.1979 22.85 43.8313 22.45C42.4979 22.05 41.4313 21.4 40.6313 20.5C39.8313 19.5667 39.4313 18.2667 39.4313 16.6C39.4313 14.8 40.2813 13.4667 41.9813 12.6C43.6813 11.7 45.6313 11.25 47.8313 11.25C49.8313 11.25 51.5313 11.6833 52.9313 12.55C54.3646 13.3833 55.0979 14.5833 55.1313 16.15C55.1979 17.05 55.0646 17.7667 54.7313 18.3C54.3979 18.8 53.9979 19.05 53.5313 19.05C53.2646 19.05 53.0313 18.95 52.8313 18.75C52.6646 18.55 52.5813 18.2833 52.5813 17.95C52.5813 17.4167 52.7646 16.8333 53.1313 16.2C52.9646 15.4 52.4146 14.8 51.4813 14.4C50.5813 14 49.4979 13.8 48.2313 13.8C46.3646 13.8 44.8813 14.15 43.7813 14.85C42.6813 15.5167 42.1313 16.3167 42.1313 17.25C42.1313 18.25 42.5313 19.0167 43.3313 19.55C44.1313 20.0833 45.0979 20.4667 46.2313 20.7C47.3979 20.9 49.0479 21.1 51.1813 21.3C52.9479 21.5333 54.3813 21.8167 55.4813 22.15C56.6146 22.4833 57.5646 23.1333 58.3313 24.1C59.0979 25.0333 59.4813 26.3833 59.4813 28.15C59.4813 29.9833 58.6313 31.4333 56.9313 32.5C55.2313 33.5333 53.1979 34.05 50.8313 34.05C47.7979 34.05 45.0813 33.5333 42.6813 32.5C40.3146 31.4667 38.9313 30 38.5313 28.1ZM71.7707 34C71.4374 34.0667 71.2207 34.1 71.1207 34.1C70.0874 34.1 69.3707 33.3333 68.9707 31.8C68.604 30.2667 68.4207 28.1167 68.4207 25.35C68.4207 24.2167 68.454 22.45 68.5207 20.05C68.5874 18.5833 68.6207 17.4833 68.6207 16.75C64.5207 16.75 62.4707 16.2833 62.4707 15.35C62.4707 15.05 62.504 14.8167 62.5707 14.65C62.6707 14.4833 62.8707 14.4 63.1707 14.4L68.6207 14.05C68.5874 12.4167 68.504 10.6333 68.3707 8.7C68.2374 6.96667 68.154 5.36666 68.1207 3.9C68.1207 3.53333 68.2707 3.28333 68.5707 3.15C68.8707 2.98333 69.1874 2.9 69.5207 2.9C69.9207 2.9 70.254 3.11666 70.5207 3.55C70.7874 3.95 70.9207 4.36667 70.9207 4.8L71.2707 13.95L75.4207 14.15C76.054 14.0833 76.5874 14.2 77.0207 14.5C77.4874 14.8 77.7374 15.3 77.7707 16C77.0707 16.3 76.304 16.4833 75.4707 16.55C74.6374 16.6167 73.2374 16.65 71.2707 16.65C71.2707 19.75 71.4207 24.85 71.7207 31.95C71.7207 32.6833 71.7207 33.2 71.7207 33.5C71.754 33.7667 71.7707 33.9333 71.7707 34ZM90.8676 34.05C88.9009 34.05 87.1176 33.6167 85.5176 32.75C83.9509 31.85 82.7176 30.6167 81.8176 29.05C80.9509 27.45 80.5176 25.6333 80.5176 23.6C80.5176 20.2667 81.7342 17.7833 84.1676 16.15C86.6342 14.5167 89.6509 13.7 93.2176 13.7C94.8509 13.7 96.3676 14.1 97.7676 14.9C99.2009 15.7 100.351 16.85 101.218 18.35C102.084 19.85 102.518 21.5833 102.518 23.55C102.518 25.6833 101.968 27.55 100.868 29.15C99.7676 30.7167 98.3176 31.9333 96.5176 32.8C94.7509 33.6333 92.8676 34.05 90.8676 34.05ZM90.3176 31.2C93.4176 31.2 95.7676 30.5 97.3676 29.1C98.9676 27.7 99.7676 25.65 99.7676 22.95C99.7676 21.1167 99.1342 19.5333 97.8676 18.2C96.6342 16.8667 94.9009 16.2 92.6676 16.2C91.1676 16.2 89.6509 16.4833 88.1176 17.05C86.5842 17.6167 85.3176 18.4667 84.3176 19.6C83.3176 20.7333 82.8176 22.1 82.8176 23.7C82.8176 25.0333 83.1509 26.2833 83.8176 27.45C84.4842 28.5833 85.3842 29.5 86.5176 30.2C87.6842 30.8667 88.9509 31.2 90.3176 31.2ZM110.894 34C109.527 31.3333 108.444 28.2 107.644 24.6C106.877 21 106.494 17.8833 106.494 15.25C106.494 14.2167 106.727 13.55 107.194 13.25C107.461 13.0833 107.661 13 107.794 13C108.027 13 108.194 13.1833 108.294 13.55C108.427 13.9167 108.561 14.5833 108.694 15.55L108.944 17.35C109.311 15.55 110.011 14.1333 111.044 13.1C112.111 12.0333 113.411 11.5 114.944 11.5C116.644 11.5 117.911 11.8333 118.744 12.5C119.577 13.1333 119.994 14.2 119.994 15.7C118.327 14.9 116.811 14.5 115.444 14.5C114.144 14.5 113.027 14.85 112.094 15.55C111.161 16.25 110.511 17.2833 110.144 18.65C109.844 19.5833 109.694 20.4667 109.694 21.3C109.694 22.2 109.811 23.05 110.044 23.85C110.311 24.6167 110.711 25.5667 111.244 26.7C111.744 27.8667 112.127 28.8667 112.394 29.7C112.694 30.5333 112.861 31.4333 112.894 32.4C112.894 32.9667 112.694 33.3833 112.294 33.65C111.894 33.8833 111.427 34 110.894 34ZM135.673 57.65C133.406 57.65 131.373 57.1667 129.573 56.2C127.806 55.2333 126.389 54.1167 125.323 52.85C124.256 51.5833 123.656 50.55 123.523 49.75C123.389 49.0167 123.556 48.45 124.023 48.05C124.523 47.65 125.139 47.4833 125.873 47.55C126.906 50.0167 128.139 51.9167 129.573 53.25C131.006 54.5833 133.056 55.2833 135.723 55.35C137.589 55.3833 139.073 54.1833 140.173 51.75C141.306 49.35 142.106 46.4 142.573 42.9C143.039 39.4333 143.273 36.0167 143.273 32.65C143.273 30.9167 143.223 29.5 143.123 28.4C140.589 31.5 137.356 33.05 133.423 33.05C130.023 33.05 127.406 31.4333 125.573 28.2C123.773 24.9667 122.606 21.3167 122.073 17.25C122.006 16.85 121.973 16.2833 121.973 15.55C121.973 13.45 122.656 12.4 124.023 12.4C124.156 12.4 124.339 13.2333 124.573 14.9C124.939 17.5333 125.389 19.9 125.923 22C126.456 24.1 127.339 26.0167 128.573 27.75C129.839 29.45 131.506 30.3 133.573 30.3C135.206 30.3 136.873 29.7667 138.573 28.7C140.306 27.6 141.556 26.3833 142.323 25.05C142.323 22.5167 141.989 20.25 141.323 18.25C140.689 16.2167 140.356 15.1333 140.323 15C140.256 14.2667 140.223 13.8 140.223 13.6C140.223 12.9333 140.323 12.45 140.523 12.15C140.756 11.85 141.089 11.7 141.523 11.7C141.989 11.7 142.523 12.65 143.123 14.55C143.723 16.45 144.256 18.9333 144.723 22C145.189 25.0667 145.506 28.2667 145.673 31.6C145.739 33.3333 145.773 34.6167 145.773 35.45C145.773 41.85 144.973 47.15 143.373 51.35C141.806 55.55 139.239 57.65 135.673 57.65Z" fill="black"/>
</svg>
