<svg width="115" height="35" viewBox="0 0 115 35" fill="none" xmlns="http://www.w3.org/2000/svg">
<path d="M23.5701 34C22.7368 34.1667 22.1535 33.7667 21.8201 32.8C21.4868 31.8 21.3035 30.3333 21.2701 28.4C21.2035 25.5667 21.1035 23.2 20.9701 21.3C20.8701 19.3667 20.6701 17.6333 20.3701 16.1C17.2701 17.5667 14.2035 18.9167 11.1701 20.15C8.17012 21.35 6.67012 21.9333 6.67012 21.9L6.77012 32.55C6.77012 33.05 6.47012 33.3667 5.87012 33.5C5.07012 33.6667 4.53678 33.2167 4.27012 32.15C4.03678 31.05 3.87012 29.3333 3.77012 27C3.70345 24.9 3.60345 23.4167 3.47012 22.55C2.53678 23.0167 1.73678 23.2333 1.07012 23.2C0.936784 22.9333 0.870117 22.3833 0.870117 21.55C1.13678 21.45 1.45345 21.3333 1.82012 21.2C2.22012 21.0667 2.50345 20.9167 2.67012 20.75C2.87012 20.55 2.97012 20.2667 2.97012 19.9C2.97012 18.2333 2.80345 15.6667 2.47012 12.2C2.10345 9.06667 1.92012 6.48333 1.92012 4.45L1.97012 2.15C2.07012 1.91666 2.18678 1.76666 2.32012 1.7C2.48678 1.63333 2.70345 1.6 2.97012 1.6C3.53678 1.6 3.82012 1.78333 3.82012 2.15L5.87012 19.75C6.80345 19.5167 8.35345 18.9167 10.5201 17.95C12.6868 16.9833 16.0201 15.4167 20.5201 13.25L20.7201 2.15C20.7201 0.849998 21.2035 0.199997 22.1701 0.199997C22.5701 0.199997 22.8368 0.349997 22.9701 0.649997C23.1368 0.949997 23.1868 1.45 23.1201 2.15L23.0701 10.8C23.0701 13.7333 23.2368 17.55 23.5701 22.25C23.6701 23.1833 23.7535 24.0833 23.8201 24.95C23.9201 25.7833 24.0035 26.5833 24.0701 27.35C24.2701 29.4167 24.4035 30.7333 24.4701 31.3C24.5701 31.8333 24.7201 32.3167 24.9201 32.75C24.7535 33.4167 24.3035 33.8333 23.5701 34ZM39.7729 34.05C37.8062 34.05 36.0229 33.6167 34.4229 32.75C32.8562 31.85 31.6229 30.6167 30.7229 29.05C29.8562 27.45 29.4229 25.6333 29.4229 23.6C29.4229 20.2667 30.6395 17.7833 33.0729 16.15C35.5395 14.5167 38.5562 13.7 42.1229 13.7C43.7562 13.7 45.2729 14.1 46.6729 14.9C48.1062 15.7 49.2562 16.85 50.1229 18.35C50.9895 19.85 51.4229 21.5833 51.4229 23.55C51.4229 25.6833 50.8729 27.55 49.7729 29.15C48.6729 30.7167 47.2229 31.9333 45.4229 32.8C43.6562 33.6333 41.7729 34.05 39.7729 34.05ZM39.2229 31.2C42.3229 31.2 44.6729 30.5 46.2729 29.1C47.8729 27.7 48.6729 25.65 48.6729 22.95C48.6729 21.1167 48.0395 19.5333 46.7729 18.2C45.5395 16.8667 43.8062 16.2 41.5729 16.2C40.0729 16.2 38.5562 16.4833 37.0229 17.05C35.4895 17.6167 34.2229 18.4667 33.2229 19.6C32.2229 20.7333 31.7229 22.1 31.7229 23.7C31.7229 25.0333 32.0562 26.2833 32.7229 27.45C33.3895 28.5833 34.2895 29.5 35.4229 30.2C36.5895 30.8667 37.8562 31.2 39.2229 31.2ZM87.8494 34.05C87.3494 34.05 87.0494 33.9167 86.9494 33.65C86.8494 33.35 86.7994 32.9 86.7994 32.3C86.8327 32.0667 86.8494 31.8 86.8494 31.5C86.8494 31.1667 86.8661 30.9167 86.8994 30.75C87.0994 29.15 87.1994 27.6333 87.1994 26.2C87.1994 23.0333 86.6661 20.5667 85.5994 18.8C84.5327 17 82.8494 16.1 80.5494 16.1C79.2827 16.1 78.0161 16.4167 76.7494 17.05C75.5161 17.6833 74.4994 18.4667 73.6994 19.4C72.9327 20.3333 72.5494 21.1833 72.5494 21.95C72.7161 22.9167 73.0161 24.1 73.4494 25.5C73.4827 25.6667 73.6161 26.1833 73.8494 27.05C74.1161 27.9167 74.2494 28.7 74.2494 29.4L74.2994 30.35C74.2994 30.8833 74.0327 31.15 73.4994 31.15C72.8327 31.15 72.2827 30.7167 71.8494 29.85C71.4494 28.9833 70.9994 27.6333 70.4994 25.8C69.9994 24 69.5161 22.5167 69.0494 21.35C68.5827 20.1833 67.9494 19.1833 67.1494 18.35C66.3494 17.5167 65.3327 17.1 64.0994 17.1C62.3994 17.1 61.0661 17.6833 60.0994 18.85C59.1661 20.0167 58.6994 21.45 58.6994 23.15C58.6994 24.2833 58.7994 25.7833 58.9994 27.65C59.1661 29.05 59.2494 30.25 59.2494 31.25C59.2494 31.85 59.1827 32.3 59.0494 32.6C58.9161 32.9 58.5994 33.05 58.0994 33.05C57.4327 33.05 56.9661 32.8333 56.6994 32.4C56.4327 31.9333 56.2994 31.2333 56.2994 30.3C56.2994 28.4667 56.1994 26.25 55.9994 23.65C55.9661 23.3167 55.8994 22.4667 55.7994 21.1C55.6994 19.7 55.6827 18.3 55.7494 16.9L55.7994 15.25C55.9994 15.05 56.2327 14.95 56.4994 14.95C56.8661 14.95 57.1661 15.1833 57.3994 15.65C57.6661 16.0833 57.7994 16.75 57.7994 17.65C58.2994 16.7833 59.0327 16 59.9994 15.3C60.9661 14.6 61.9827 14.25 63.0494 14.25C64.8827 14.25 66.3994 14.6333 67.5994 15.4C68.8327 16.1333 69.9494 17.3333 70.9494 19C71.8827 17.3 73.2827 15.85 75.1494 14.65C77.0494 13.45 78.9994 12.85 80.9994 12.85C83.0661 12.85 84.7827 13.6333 86.1494 15.2C87.5494 16.7667 88.5661 18.65 89.1994 20.85C89.8661 23.05 90.1994 25.0833 90.1994 26.95C90.1994 28.6167 90.0494 30.2167 89.7494 31.75C89.4827 33.2833 88.8494 34.05 87.8494 34.05ZM106.018 34C103.884 34 101.918 33.5833 100.118 32.75C98.3178 31.9167 96.8844 30.7333 95.8178 29.2C94.7511 27.6667 94.2178 25.9 94.2178 23.9C94.2178 21.6667 94.6344 19.5833 95.4678 17.65C96.3011 15.6833 97.5178 14.1167 99.1178 12.95C100.751 11.75 102.651 11.15 104.818 11.15C107.084 11.15 108.801 11.8833 109.968 13.35C111.134 14.7833 111.684 16.6 111.618 18.8C111.618 20.7667 110.834 22.2667 109.268 23.3C107.734 24.3333 105.768 24.85 103.368 24.85C103.001 24.85 102.451 24.8167 101.718 24.75C100.518 24.6167 99.6678 24.4333 99.1678 24.2C98.6678 23.9667 98.4178 23.5 98.4178 22.8C98.4178 22.5667 98.4844 22.4 98.6178 22.3C98.7511 22.1667 99.0178 22.1 99.4178 22.1C99.8511 22.1 100.618 22.2 101.718 22.4C102.784 22.6 103.734 22.7 104.568 22.7C107.634 22.7 109.168 21.3667 109.168 18.7C109.168 17.1 108.868 15.8333 108.268 14.9C107.701 13.9667 106.684 13.5 105.218 13.5C103.618 13.5 102.184 13.9333 100.918 14.8C99.6511 15.6333 98.6678 16.7333 97.9678 18.1C97.3011 19.4667 96.9678 20.9167 96.9678 22.45C96.9678 25.0833 97.7011 27.25 99.1678 28.95C100.634 30.6167 102.901 31.45 105.968 31.45C106.334 31.45 106.951 31.4167 107.818 31.35C108.184 31.3167 108.634 31.2167 109.168 31.05C109.701 30.8833 110.084 30.7667 110.318 30.7C111.751 30.2 112.801 29.95 113.468 29.95C113.968 29.95 114.351 30.0833 114.618 30.35C113.784 31.6167 112.534 32.55 110.868 33.15C109.234 33.7167 107.618 34 106.018 34Z" fill="black"/>
</svg>
