<svg width="114" height="32" viewBox="0 0 114 32" fill="none" xmlns="http://www.w3.org/2000/svg">
<path d="M16.5027 31.05C15.5694 31.05 14.9194 30.5667 14.5527 29.6C14.1861 28.6333 13.8861 27.3333 13.6527 25.7L13.5027 24.45C13.0027 21.7833 12.6027 19.1333 12.3027 16.5C12.0027 13.8333 11.7027 10.6167 11.4027 6.85L11.1027 3.15C9.10273 3.18333 6.25273 3.1 2.55273 2.9L1.55273 2.85C1.08607 2.81667 0.752734 2.6 0.552734 2.2C0.386068 1.76666 0.302734 1.18333 0.302734 0.45H3.75273C9.55273 0.45 14.7861 0.666666 19.4527 1.1C24.1194 1.53333 26.4527 2.41667 26.4527 3.75C26.4527 4.11667 26.3861 4.36666 26.2527 4.5C26.1527 4.63333 25.9194 4.7 25.5527 4.7C24.2194 4.6 22.1527 4.31666 19.3527 3.85C18.7194 3.75 17.9527 3.63333 17.0527 3.5C16.1527 3.36667 15.1361 3.23333 14.0027 3.1C14.0027 7.93333 14.7194 15.3667 16.1527 25.4C16.2194 25.9 16.4527 26.6167 16.8527 27.55C17.0194 27.95 17.1694 28.3833 17.3027 28.85C17.4694 29.2833 17.5527 29.6833 17.5527 30.05C17.5527 30.5167 17.4861 30.8 17.3527 30.9C17.2194 31 17.0527 31.05 16.8527 31.05C16.6861 31.05 16.5694 31.05 16.5027 31.05ZM41.5148 31C39.3815 31 37.4148 30.5833 35.6148 29.75C33.8148 28.9167 32.3815 27.7333 31.3148 26.2C30.2482 24.6667 29.7148 22.9 29.7148 20.9C29.7148 18.6667 30.1315 16.5833 30.9648 14.65C31.7982 12.6833 33.0148 11.1167 34.6148 9.95C36.2482 8.75 38.1482 8.15 40.3148 8.15C42.5815 8.15 44.2982 8.88333 45.4648 10.35C46.6315 11.7833 47.1815 13.6 47.1148 15.8C47.1148 17.7667 46.3315 19.2667 44.7648 20.3C43.2315 21.3333 41.2648 21.85 38.8648 21.85C38.4982 21.85 37.9482 21.8167 37.2148 21.75C36.0148 21.6167 35.1648 21.4333 34.6648 21.2C34.1648 20.9667 33.9148 20.5 33.9148 19.8C33.9148 19.5667 33.9815 19.4 34.1148 19.3C34.2482 19.1667 34.5148 19.1 34.9148 19.1C35.3482 19.1 36.1148 19.2 37.2148 19.4C38.2815 19.6 39.2315 19.7 40.0648 19.7C43.1315 19.7 44.6648 18.3667 44.6648 15.7C44.6648 14.1 44.3648 12.8333 43.7648 11.9C43.1982 10.9667 42.1815 10.5 40.7148 10.5C39.1148 10.5 37.6815 10.9333 36.4148 11.8C35.1482 12.6333 34.1648 13.7333 33.4648 15.1C32.7982 16.4667 32.4648 17.9167 32.4648 19.45C32.4648 22.0833 33.1982 24.25 34.6648 25.95C36.1315 27.6167 38.3982 28.45 41.4648 28.45C41.8315 28.45 42.4482 28.4167 43.3148 28.35C43.6815 28.3167 44.1315 28.2167 44.6648 28.05C45.1982 27.8833 45.5815 27.7667 45.8148 27.7C47.2482 27.2 48.2982 26.95 48.9648 26.95C49.4648 26.95 49.8482 27.0833 50.1148 27.35C49.2815 28.6167 48.0315 29.55 46.3648 30.15C44.7315 30.7167 43.1148 31 41.5148 31ZM64.977 31C61.5103 31 58.4936 30.4 55.927 29.2C53.3936 27.9667 52.127 25.8167 52.127 22.75C52.127 21.65 52.4603 20.5833 53.127 19.55C53.7936 18.5167 54.777 17.6833 56.077 17.05C57.377 16.3833 58.9603 16.05 60.827 16.05C62.2603 16.05 63.477 16.1167 64.477 16.25C65.477 16.3833 66.627 16.75 67.927 17.35C69.227 17.95 70.577 18.9 71.977 20.2C71.4436 17.9 70.6436 15.8833 69.577 14.15C68.5103 12.4167 67.3103 11.0833 65.977 10.15C64.677 9.18333 63.3936 8.7 62.127 8.7C61.527 8.7 60.9603 8.81667 60.427 9.05C59.927 9.25 59.3103 9.55 58.577 9.95C57.7436 10.4833 57.127 10.75 56.727 10.75C56.5603 10.75 56.4103 10.7 56.277 10.6C56.177 10.4667 56.127 10.3167 56.127 10.15C56.127 8.81667 56.7103 7.78333 57.877 7.05C59.077 6.31666 60.527 5.98333 62.227 6.05C64.5603 6.18333 66.6936 7.18333 68.627 9.05C70.5603 10.8833 72.077 13.1667 73.177 15.9C74.3103 18.6333 74.877 21.3167 74.877 23.95C74.877 24.3833 74.8436 25 74.777 25.8L73.177 25.7C71.9103 23.1333 70.277 21.3167 68.277 20.25C66.3103 19.15 64.327 18.6 62.327 18.6C59.7603 18.6 57.927 18.9833 56.827 19.75C55.727 20.5167 55.177 21.6333 55.177 23.1C55.177 24.6333 55.9436 25.8667 57.477 26.8C59.0103 27.7333 60.977 28.2 63.377 28.2C64.7103 28.2 65.777 28.1333 66.577 28C67.377 27.8333 68.2103 27.6167 69.077 27.35C69.777 27.1167 70.3936 26.95 70.927 26.85C71.4603 26.75 72.1436 26.7 72.977 26.7C73.9103 26.7 74.4936 26.7667 74.727 26.9C74.9936 27.0333 75.127 27.3333 75.127 27.8C75.127 28.1333 74.4436 28.55 73.077 29.05C71.7103 29.55 70.177 30 68.477 30.4C66.777 30.8 65.6103 31 64.977 31ZM111.579 31.05C111.079 31.05 110.779 30.9167 110.679 30.65C110.579 30.35 110.529 29.9 110.529 29.3C110.562 29.0667 110.579 28.8 110.579 28.5C110.579 28.1667 110.596 27.9167 110.629 27.75C110.829 26.15 110.929 24.6333 110.929 23.2C110.929 20.0333 110.396 17.5667 109.329 15.8C108.262 14 106.579 13.1 104.279 13.1C103.012 13.1 101.746 13.4167 100.479 14.05C99.2456 14.6833 98.2289 15.4667 97.4289 16.4C96.6622 17.3333 96.2789 18.1833 96.2789 18.95C96.4456 19.9167 96.7456 21.1 97.1789 22.5C97.2122 22.6667 97.3456 23.1833 97.5789 24.05C97.8456 24.9167 97.9789 25.7 97.9789 26.4L98.0289 27.35C98.0289 27.8833 97.7622 28.15 97.2289 28.15C96.5622 28.15 96.0122 27.7167 95.5789 26.85C95.1789 25.9833 94.7289 24.6333 94.2289 22.8C93.7289 21 93.2456 19.5167 92.7789 18.35C92.3122 17.1833 91.6789 16.1833 90.8789 15.35C90.0789 14.5167 89.0622 14.1 87.8289 14.1C86.1289 14.1 84.7956 14.6833 83.8289 15.85C82.8956 17.0167 82.4289 18.45 82.4289 20.15C82.4289 21.2833 82.5289 22.7833 82.7289 24.65C82.8956 26.05 82.9789 27.25 82.9789 28.25C82.9789 28.85 82.9122 29.3 82.7789 29.6C82.6456 29.9 82.3289 30.05 81.8289 30.05C81.1622 30.05 80.6956 29.8333 80.4289 29.4C80.1622 28.9333 80.0289 28.2333 80.0289 27.3C80.0289 25.4667 79.9289 23.25 79.7289 20.65C79.6956 20.3167 79.6289 19.4667 79.5289 18.1C79.4289 16.7 79.4122 15.3 79.4789 13.9L79.5289 12.25C79.7289 12.05 79.9622 11.95 80.2289 11.95C80.5956 11.95 80.8956 12.1833 81.1289 12.65C81.3956 13.0833 81.5289 13.75 81.5289 14.65C82.0289 13.7833 82.7622 13 83.7289 12.3C84.6956 11.6 85.7122 11.25 86.7789 11.25C88.6122 11.25 90.1289 11.6333 91.3289 12.4C92.5622 13.1333 93.6789 14.3333 94.6789 16C95.6122 14.3 97.0122 12.85 98.8789 11.65C100.779 10.45 102.729 9.85 104.729 9.85C106.796 9.85 108.512 10.6333 109.879 12.2C111.279 13.7667 112.296 15.65 112.929 17.85C113.596 20.05 113.929 22.0833 113.929 23.95C113.929 25.6167 113.779 27.2167 113.479 28.75C113.212 30.2833 112.579 31.05 111.579 31.05Z" fill="black"/>
</svg>
